<svg t="1621689921808" class="icon" viewBox="0 0 1024 1024" version="1.1" xmlns="http://www.w3.org/2000/svg" p-id="1592" width="200" height="200"><path d="M698.914579 195.893342H324.948937L253.818417 26.721068h525.271537l-80.175375 169.172274z" fill="#FFBAB0" p-id="1593"></path><path d="M698.914579 222.581246H324.948937a26.576238 26.576238 0 0 1-24.56627-16.303071L229.140481 37.1059A26.687903 26.687903 0 0 1 253.818417 0.033164h524.824877A26.687903 26.687903 0 0 1 803.767889 38.222549l-80.622034 169.172275a26.799568 26.799568 0 0 1-24.231276 15.186422z m-356.210928-53.375807H682.053184L736.768969 53.408971H294.017769z" fill="#783741" p-id="1594"></path><path d="M669.993378 650.034359L930.507514 104.99814 770.491759 26.721068 482.508066 632.16798" fill="#FFBAB0" p-id="1595"></path><path d="M669.770048 676.722262a26.129579 26.129579 0 0 1-11.166486-2.568292 26.799568 26.799568 0 0 1-12.61813-35.621093l249.012654-521.139937-111.664867-54.82745-276.370547 580.657312a26.687903 26.687903 0 0 1-48.239223-22.332974L746.372148 15.219586A27.246228 27.246228 0 0 1 761.670234 1.484808a26.799568 26.799568 0 0 1 20.546336 1.228313l160.015755 78.165408a26.576238 26.576238 0 0 1 12.283136 35.509427L694.11299 661.53584A26.687903 26.687903 0 0 1 669.770048 676.722262z" fill="#783741" p-id="1596"></path><path d="M354.651792 650.034359L93.467667 104.99814l160.015755-78.277072 288.653683 605.446912" fill="#FFBAB0" p-id="1597"></path><path d="M354.651792 676.722262a26.576238 26.576238 0 0 1-24.007946-15.186422L69.45972 116.611286a26.576238 26.576238 0 0 1 12.283136-35.509428l159.90409-78.165407a26.911233 26.911233 0 0 1 35.956088 12.506465l288.653682 605.223582a26.687903 26.687903 0 1 1-48.239223 23.002963L240.976957 62.56549l-111.664868 54.82745 249.459315 521.139937a26.687903 26.687903 0 0 1-12.506466 35.621093 27.022898 27.022898 0 0 1-11.613146 2.568292z" fill="#783741" p-id="1598"></path><path d="M511.987591 774.652351m-222.548082 0a222.548081 222.548081 0 1 0 445.096163 0 222.548081 222.548081 0 1 0-445.096163 0Z" fill="#F6E89A" p-id="1599"></path><path d="M511.987591 1024A249.347649 249.347649 0 1 1 761.33524 774.652351 249.682644 249.682644 0 0 1 511.987591 1024z m0-445.207827a195.860178 195.860178 0 1 0 195.860177 195.860178 196.083507 196.083507 0 0 0-195.860177-195.860178z" fill="#8D4520" p-id="1600"></path><path d="M643.082145 779.118945a126.62796 126.62796 0 1 1-126.62796-126.627959 126.62796 126.62796 0 0 1 126.62796 126.627959z" fill="#FFFFFF" p-id="1601"></path><path d="M516.454185 923.613284A144.494339 144.494339 0 1 1 660.836859 779.118945a145.164328 145.164328 0 0 1-144.382674 144.494339z m0-253.367584A108.873246 108.873246 0 1 0 625.104101 779.118945 108.984911 108.984911 0 0 0 516.454185 670.02237z" fill="#8D4520" p-id="1602"></path><path d="M520.027461 844.442893A17.754714 17.754714 0 0 1 502.272747 826.353184v-64.207298l-3.90827 3.90827a17.754714 17.754714 0 0 1-25.124596-25.23626l34.281115-34.281114a17.866379 17.866379 0 0 1 30.372844 12.61813V826.353184a17.866379 17.866379 0 0 1-17.866379 18.089709z" fill="#8D4520" p-id="1603"></path><path d="M540.350467 845.894536h-48.462553a17.866379 17.866379 0 0 1 0-35.621093h48.462553a17.866379 17.866379 0 0 1 0 35.621093z" fill="#8D4520" p-id="1604"></path></svg>