<svg t="1621689657472" class="icon" viewBox="0 0 1024 1024" version="1.1" xmlns="http://www.w3.org/2000/svg" p-id="4166" width="200" height="200"><path d="M352.7 490.2l-77.2 284.9c-2.8 11.2 4.2 22.5 14 25.3 2.8 1.4 5.6 1.4 8.4 0l68.8-11.2 53.3 43.5c8.4 7 21.1 5.6 28.1-2.8 1.4-2.8 2.8-4.2 4.2-7L528.1 538c0.1-0.1-175.4-47.8-175.4-47.8z" fill="#FF9999" p-id="4167"></path><path d="M365.3 512.2l141 38.3-70.6 265.4c-0.1 0.1-0.2 0.3-0.3 0.5-0.5 0.7-1 1.5-1.6 2.5-0.5 0.3-1 0.3-1.2 0.3-0.6 0-0.9-0.2-1-0.3l-0.1-0.1-53.3-43.5c-3.2-2.6-7.2-4-11.3-4-1 0-1.9 0.1-2.9 0.2l-68.8 11.2c-0.3 0.1-0.7 0.1-1 0.2-0.6-0.6-1.5-1.9-1.2-3.3l72.3-267.4m-12.6-22l-77.2 284.9c-2.8 11.2 4.2 22.5 14 25.3 1.4 0.7 2.8 1.1 4.2 1.1 1.4 0 2.8-0.4 4.2-1.1l68.8-11.2 53.3 43.5c3.6 3 8.1 4.5 12.5 4.5 5.8 0 11.6-2.5 15.6-7.3 1.4-2.8 2.8-4.2 4.2-7L528.1 538l-175.4-47.8z" p-id="4168"></path><path d="M491.7 537.9l75.8 284.9c2.8 11.2 14 16.8 25.3 14 2.8-1.4 5.6-1.4 7-4.2l53.3-43.5 68.8 11.2c11.2 1.4 21.1-5.6 23.9-16.8v-8.4L670 490.2l-178.3 47.7z" fill="#FF9999" p-id="4169"></path><path d="M657.2 512.1l70.6 265.3v3.2c-0.5 1-1.5 2-3.1 2h-0.4L656 771.5c-1-0.2-1.9-0.2-2.9-0.2-4.1 0-8.1 1.4-11.3 4l-53.3 43.5c-0.3 0.3-0.7 0.6-1 0.9h-0.4c-1.9 0-2.1-0.8-2.1-1.2 0-0.1 0-0.2-0.1-0.3l-71.2-267.6 143.5-38.5m12.7-21.9l-178.3 47.7 75.8 284.9c2.3 9.3 10.4 14.8 19.5 14.8 1.9 0 3.8-0.2 5.7-0.7 2.8-1.4 5.6-1.4 7-4.2l53.3-43.5 68.8 11.2c1 0.1 1.9 0.2 2.8 0.2 10 0 18.5-6.7 21-17v-8.4l-75.6-285z" p-id="4170"></path><path d="M236.2 439.7c0 151.6 123.5 275.1 275.1 275.1s275.1-123.5 275.1-275.1-123.5-275.1-275.1-275.1-275.1 123.5-275.1 275.1z" fill="#99E5E2" p-id="4171"></path><path d="M511.3 182.7c34.6 0 68.2 6.8 99.8 20.2 30.6 13 58.1 31.5 81.7 55.2 23.6 23.6 42.2 51.1 55.2 81.7 13.4 31.7 20.2 65.2 20.2 99.8s-6.8 68.2-20.2 99.8c-13 30.6-31.5 58.1-55.2 81.7-23.6 23.6-51.1 42.2-81.7 55.2-31.7 13.4-65.2 20.2-99.8 20.2s-68.2-6.8-99.8-20.2c-30.6-13-58.1-31.5-81.7-55.2-23.6-23.6-42.2-51.1-55.2-81.7-13.4-31.7-20.2-65.2-20.2-99.8s6.8-68.2 20.2-99.8c13-30.6 31.5-58.1 55.2-81.7 23.6-23.6 51.1-42.2 81.7-55.2 31.6-13.4 65.2-20.2 99.8-20.2m0-18.1c-151.6 0-275.1 123.5-275.1 275.1s123.5 275.1 275.1 275.1 275.1-123.5 275.1-275.1-123.5-275.1-275.1-275.1z" p-id="4172"></path><path d="M511.3 516.8L458 544.9c-9.8 5.6-22.5 1.4-28.1-8.4-1.4-4.2-2.8-8.4-1.4-12.6l9.8-58.9-43.5-42.1c-8.4-8.4-8.4-21.1 0-29.5 2.8-2.8 7-5.6 11.2-5.6l58.9-8.4 26.7-53.3c5.6-9.8 16.8-14 26.7-9.8 4.2 1.4 7 5.6 9.8 9.8l26.7 53.3 58.9 8.4c11.2 1.4 18.2 12.6 16.8 22.5 0 4.2-2.8 8.4-5.6 11.2l-43.5 42.1 9.8 58.9c1.4 11.2-5.6 21.1-16.8 23.9-4.2 1.4-8.4 0-12.6-1.4l-50.5-28.2z" fill="#FFFFFF" p-id="4173"></path><path d="M510.5 332.4h0.4c0.5 0.7 1.2 1.6 1.8 2.5l26.2 52.3c2.6 5.3 7.7 8.9 13.5 9.7l58.9 8.4h0.3c0.6 0.1 1.4 1.5 1.3 2.1 0 0.2-0.1 0.4-0.1 0.6-0.1 0.1-0.2 0.3-0.4 0.5l-43.4 42c-4.2 4.1-6.2 10-5.2 15.8l9.7 58.5c0.2 2.4-1.5 3.5-3.1 3.9-0.4-0.1-0.9-0.3-1.4-0.4l-49-27.2c-2.7-1.5-5.7-2.3-8.7-2.3-2.9 0-5.7 0.7-8.3 2.1L449.7 529c-0.2 0.1-0.4 0.2-0.5 0.3-0.1 0.1-0.3 0.2-0.6 0.2-0.7 0-1.6-0.4-2.3-1-0.1-0.2-0.1-0.4-0.2-0.6 0.1-0.3 0.1-0.7 0.2-1.1l9.8-58.9c1-5.8-1-11.7-5.2-15.8l-43.4-42c-1.4-1.4-1.3-2.7 0.1-4.1 0.2-0.2 0.4-0.3 0.5-0.5 0.2 0 0.4 0 0.6-0.1l58.9-8.4c5.8-0.8 10.9-4.5 13.5-9.7l26.4-52.8c0.9-1.5 2.2-2.1 3-2.1M510.5 314.5c-7.4 0-14.7 4.2-18.8 11.5L465 379.3l-58.9 8.4c-4.2 0-8.4 2.8-11.2 5.6-8.4 8.4-8.4 21.1 0 29.5l43.5 42.1-9.8 58.9c-1.4 4.2 0 8.4 1.4 12.6 3.9 6.8 11.2 10.9 18.6 10.9 3.2 0 6.5-0.8 9.5-2.5l53.3-28.1 50.5 28.1c3 1 6 2 8.9 2 1.2 0 2.5-0.2 3.7-0.6 11.2-2.8 18.2-12.6 16.8-23.9l-9.8-58.9 43.5-42.1c2.8-2.8 5.6-7 5.6-11.2 1.4-9.8-5.6-21.1-16.8-22.5l-58.9-8.4-26.7-53.2c-2.8-4.2-5.6-8.4-9.8-9.8-2.6-1.2-5.3-1.7-7.9-1.7z" p-id="4174"></path></svg>